<svg width="591" height="337" viewBox="0 0 591 337" fill="none" xmlns="http://www.w3.org/2000/svg">
<rect width="527" height="337" rx="10" fill="white"/>
<rect opacity="0.673526" x="28" y="34" width="51.0914" height="19" rx="9.5" fill="#009FE7"/>
<rect opacity="0.673526" x="87.4512" y="34" width="85" height="19" rx="9.5" fill="#009FE7"/>
<rect x="28" y="121" width="144" height="11.1429" rx="5.57143" fill="#DBDBDB"/>
<rect x="28" y="146" width="80.1391" height="11.1429" rx="5.57143" fill="#DBDBDB"/>
<rect x="28" y="220" width="110.438" height="32" rx="6" fill="#10202F"/>
<rect x="51" y="233" width="64" height="6" rx="3" fill="white"/>
<path fill-rule="evenodd" clip-rule="evenodd" d="M501.316 42.2362C501.344 42.2707 504.082 45.8117 508.29 45.9929C510.823 46.1007 513.165 44.9853 515.251 42.6735C517.849 39.7967 519.488 39.2395 520.404 39.2791C521.756 39.3387 522.978 40.8379 524.016 42.2362C524.043 42.2707 526.777 45.8109 530.989 45.9929C533.521 46.1007 535.862 44.9862 537.95 42.6735C539.513 40.9431 541.074 40.0814 542.592 40.1098C544.937 40.1512 546.727 42.2586 546.765 42.3017C547.358 43.0237 548.479 43.173 549.274 42.6347C550.071 42.0973 550.238 41.0699 549.647 40.3445C549.534 40.2021 546.819 36.9276 542.7 36.8336C540.013 36.7724 537.48 38.037 535.173 40.5929C533.866 42.0386 532.537 42.7555 531.222 42.7218C529.262 42.6727 527.469 40.9845 526.982 40.385C525.801 38.7926 523.827 36.1461 520.576 36.0055C518.01 35.8968 515.361 37.396 512.475 40.5929C511.168 42.0386 509.84 42.7555 508.522 42.7218C506.564 42.6727 504.771 40.9845 504.286 40.385C503.104 38.7926 501.131 36.1461 497.878 36.0055C495.313 35.8968 492.663 37.396 489.777 40.5929C488.47 42.0386 487.14 42.7563 485.825 42.7218C483.867 42.6727 482.074 40.9845 481.586 40.385C480.404 38.7926 478.434 36.1461 475.179 36.0055C472.614 35.8968 469.965 37.396 467.079 40.5929C466.803 40.8983 466.67 41.2649 466.67 41.6315C466.67 42.1042 466.894 42.5743 467.325 42.8987C468.093 43.4732 469.225 43.3731 469.856 42.6735C472.455 39.7967 474.093 39.2395 475.01 39.2791C476.362 39.3387 477.583 40.8379 478.619 42.2362C478.646 42.2707 481.378 45.8109 485.591 45.9911C488.123 46.1033 490.467 44.9862 492.556 42.6735C495.152 39.7967 496.791 39.2395 497.709 39.2791C499.058 39.3387 500.278 40.8379 501.316 42.2362Z" fill="#009FE7"/>
<path fill-rule="evenodd" clip-rule="evenodd" d="M283.425 72.8443C274.271 72.8443 266.825 80.3139 266.825 89.4972V217.503C266.825 226.686 274.271 234.156 283.425 234.156H472.575C481.728 234.156 489.174 226.686 489.174 217.503V89.4972C489.174 80.3139 481.728 72.8443 472.575 72.8443H283.425ZM472.575 240H283.425C271.06 240 261 229.908 261 217.503V89.4972C261 77.0921 271.06 67 283.425 67H472.575C484.94 67 495 77.0921 495 89.4972V217.503C495 229.908 484.94 240 472.575 240V240Z" fill="#F1F2F4"/>
<path d="M283.425 72.0943C273.854 72.0943 266.075 79.9019 266.075 89.4972H267.575C267.575 80.7258 274.687 73.5943 283.425 73.5943V72.0943ZM266.075 89.4972V217.503H267.575V89.4972H266.075ZM266.075 217.503C266.075 227.098 273.854 234.906 283.425 234.906V233.406C274.687 233.406 267.575 226.274 267.575 217.503H266.075ZM283.425 234.906H472.575V233.406H283.425V234.906ZM472.575 234.906C482.145 234.906 489.924 227.098 489.924 217.503H488.424C488.424 226.274 481.312 233.406 472.575 233.406V234.906ZM489.924 217.503V89.4972H488.424V217.503H489.924ZM489.924 89.4972C489.924 79.902 482.145 72.0943 472.575 72.0943V73.5943C481.312 73.5943 488.424 80.7258 488.424 89.4972H489.924ZM472.575 72.0943H283.425V73.5943H472.575V72.0943ZM472.575 239.25H283.425V240.75H472.575V239.25ZM283.425 239.25C271.476 239.25 261.75 229.496 261.75 217.503H260.25C260.25 230.32 270.644 240.75 283.425 240.75V239.25ZM261.75 217.503V89.4972H260.25V217.503H261.75ZM261.75 89.4972C261.75 77.5041 271.476 67.75 283.425 67.75V66.25C270.644 66.25 260.25 76.6802 260.25 89.4972H261.75ZM283.425 67.75H472.575V66.25H283.425V67.75ZM472.575 67.75C484.524 67.75 494.25 77.5041 494.25 89.4972H495.75C495.75 76.6802 485.356 66.25 472.575 66.25V67.75ZM494.25 89.4972V217.503H495.75V89.4972H494.25ZM494.25 217.503C494.25 229.496 484.524 239.25 472.575 239.25V240.75C485.356 240.75 495.75 230.32 495.75 217.503H494.25Z" fill="white"/>
<g opacity="0.1127">
<mask id="mask0_0_13" style="mask-type:luminance" maskUnits="userSpaceOnUse" x="410" y="94" width="57" height="4">
<path fill-rule="evenodd" clip-rule="evenodd" d="M410 94H467V98H410V94Z" fill="white"/>
</mask>
<g mask="url(#mask0_0_13)">
<path fill-rule="evenodd" clip-rule="evenodd" d="M463.34 98H413.662C411.64 98 410 97.1043 410 96C410 94.8957 411.64 94 413.662 94H463.34C465.362 94 467 94.8957 467 96C467 97.1043 465.362 98 463.34 98Z" fill="#979797"/>
</g>
<mask id="mask1_0_13" style="mask-type:luminance" maskUnits="userSpaceOnUse" x="410" y="107" width="57" height="4">
<path fill-rule="evenodd" clip-rule="evenodd" d="M410 107H467V111H410V107Z" fill="white"/>
</mask>
<g mask="url(#mask1_0_13)">
<path fill-rule="evenodd" clip-rule="evenodd" d="M463.34 111H413.662C411.64 111 410 110.104 410 109C410 107.897 411.64 107 413.662 107H463.34C465.362 107 467 107.897 467 109C467 110.104 465.362 111 463.34 111Z" fill="#979797"/>
</g>
<mask id="mask2_0_13" style="mask-type:luminance" maskUnits="userSpaceOnUse" x="410" y="120" width="57" height="4">
<path fill-rule="evenodd" clip-rule="evenodd" d="M410 120H467V124H410V120Z" fill="white"/>
</mask>
<g mask="url(#mask2_0_13)">
<path fill-rule="evenodd" clip-rule="evenodd" d="M463.34 124H413.662C411.64 124 410 123.104 410 121.999C410 120.895 411.64 120 413.662 120H463.34C465.362 120 467 120.895 467 121.999C467 123.104 465.362 124 463.34 124Z" fill="#979797"/>
</g>
</g>
<mask id="mask3_0_13" style="mask-type:luminance" maskUnits="userSpaceOnUse" x="220" y="250" width="266" height="36">
<path fill-rule="evenodd" clip-rule="evenodd" d="M220 250H486V286H220V250Z" fill="white"/>
</mask>
<g mask="url(#mask3_0_13)">
<path fill-rule="evenodd" clip-rule="evenodd" d="M225.828 255.766V263.803C225.828 272.864 233.278 280.234 242.436 280.234H463.564C472.722 280.234 480.172 272.864 480.172 263.803V255.766H225.828ZM463.564 286H242.436C230.065 286 220 276.044 220 263.803V252.883C220 251.29 221.305 250 222.915 250H483.087C484.696 250 486 251.29 486 252.883V263.803C486 276.044 475.935 286 463.564 286V286Z" fill="#F1F2F4"/>
<path d="M225.828 255.766V255.016H225.078V255.766H225.828ZM480.172 255.766H480.922V255.016H480.172V255.766ZM225.078 255.766V263.803H226.578V255.766H225.078ZM225.078 263.803C225.078 273.285 232.871 280.984 242.436 280.984V279.484C233.684 279.484 226.578 272.442 226.578 263.803H225.078ZM242.436 280.984H463.564V279.484H242.436V280.984ZM463.564 280.984C473.128 280.984 480.922 273.285 480.922 263.803H479.422C479.422 272.442 472.315 279.484 463.564 279.484V280.984ZM480.922 263.803V255.766H479.422V263.803H480.922ZM480.172 255.016H225.828V256.516H480.172V255.016ZM463.564 285.25H242.436V286.75H463.564V285.25ZM242.436 285.25C230.472 285.25 220.75 275.622 220.75 263.803H219.25C219.25 276.466 229.659 286.75 242.436 286.75V285.25ZM220.75 263.803V252.883H219.25V263.803H220.75ZM220.75 252.883C220.75 251.712 221.711 250.75 222.915 250.75V249.25C220.899 249.25 219.25 250.868 219.25 252.883H220.75ZM222.915 250.75H483.087V249.25H222.915V250.75ZM483.087 250.75C484.289 250.75 485.25 251.712 485.25 252.883H486.75C486.75 250.869 485.103 249.25 483.087 249.25V250.75ZM485.25 252.883V263.803H486.75V252.883H485.25ZM485.25 263.803C485.25 275.622 475.529 285.25 463.564 285.25V286.75C476.342 286.75 486.75 276.466 486.75 263.803H485.25Z" fill="white"/>
</g>
<path fill-rule="evenodd" clip-rule="evenodd" d="M173.971 291.029H188.03V276.968C188.03 275.881 188.914 275 190.002 275C191.09 275 191.969 275.881 191.969 276.968V291.029H206.03C207.119 291.029 208 291.913 208 293C208 294.087 207.119 294.968 206.03 294.968H191.969V309.03C191.969 310.119 191.09 311 190.002 311C188.914 311 188.03 310.119 188.03 309.03V294.968H173.971C172.882 294.968 172 294.087 172 293C172 291.913 172.882 291.029 173.971 291.029Z" fill="#10202F"/>
<path opacity="0.296642" fill-rule="evenodd" clip-rule="evenodd" d="M318.547 271H362.453C364.412 271 366 269.433 366 267.497C366 265.566 364.412 264 362.453 264H318.547C316.586 264 315 265.566 315 267.497C315 269.433 316.586 271 318.547 271" fill="#1D4965"/>
<path fill-rule="evenodd" clip-rule="evenodd" d="M360.175 180H223.826C222.265 180 221 178.88 221 177.499C221 176.12 222.265 175 223.826 175H360.175C361.735 175 363 176.12 363 177.499C363 178.88 361.735 180 360.175 180" fill="#0192D5"/>
<path fill-rule="evenodd" clip-rule="evenodd" d="M347.305 194C346.715 194 346.126 193.777 345.675 193.333C344.775 192.442 344.775 191.001 345.675 190.111L358.436 177.499L345.675 164.889C344.775 163.999 344.775 162.557 345.675 161.668C346.576 160.777 348.035 160.777 348.935 161.668L363.325 175.89C364.225 176.779 364.225 178.221 363.325 179.111L348.935 193.333C348.484 193.777 347.894 194 347.305 194" fill="#0192D5"/>
<path fill-rule="evenodd" clip-rule="evenodd" d="M421 153.536C408.062 153.536 397.536 164.062 397.536 177C397.536 189.938 408.062 200.464 421 200.464C433.938 200.464 444.464 189.938 444.464 177C444.464 164.062 433.938 153.536 421 153.536M421 205C405.56 205 393 192.438 393 177C393 161.562 405.56 149 421 149C436.438 149 449 161.562 449 177C449 192.438 436.438 205 421 205" fill="#009FE7"/>
<path fill-rule="evenodd" clip-rule="evenodd" d="M462.534 170.923C459.393 168.817 457.959 164.485 459.845 161.147C461.932 157.455 466.973 157.193 470.312 159.416C482.607 167.898 492.712 178.147 501 190.551C497.076 193.019 493.162 195.502 489.256 198C481.992 187.203 473.241 178.344 462.534 170.923" fill="#F0F0F0"/>
<path fill-rule="evenodd" clip-rule="evenodd" d="M490.469 194.48C493.039 192.839 495.679 191.166 498.361 189.472C490.424 178.082 480.933 168.651 469.412 160.692C467.25 159.262 463.929 159.177 462.418 161.328C462.342 161.432 462.274 161.543 462.212 161.654C461 163.791 461.905 166.894 464.187 168.424C464.197 168.433 464.209 168.436 464.22 168.444C474.643 175.674 483.247 184.204 490.469 194.48M503.574 191.497C503.398 191.747 503.172 191.963 502.907 192.131C498.859 194.678 494.882 197.2 491.084 199.631C490.012 200.316 488.586 200.021 487.876 198.966C480.728 188.341 472.122 179.615 461.56 172.287C457.271 169.397 455.733 163.606 458.133 159.36C458.272 159.116 458.422 158.874 458.584 158.646C460.046 156.569 462.344 155.287 465.049 155.042C467.454 154.822 469.998 155.468 472.024 156.819C472.035 156.827 472.045 156.833 472.057 156.841C484.744 165.602 495.063 176.073 503.607 188.864C503.957 189.385 504.079 190.027 503.949 190.645C503.882 190.952 503.755 191.243 503.574 191.497" fill="#D6D6D6"/>
<path fill-rule="evenodd" clip-rule="evenodd" d="M443.96 220.197C444.467 216.65 447.771 214.103 451.375 214.305C446.371 213.475 443.08 210.796 443.281 206.449C443.47 202.368 447.418 199.909 451.1 200.162C447.644 199.368 444.851 196.18 445.491 192.601C446.209 188.586 450.649 186.35 454.546 186.949C442.424 184.188 436.159 183.68 426.837 183.608C422.909 183.676 419.59 181.62 419.078 177.773C418.382 172.531 422.457 170.122 426.387 170C461.87 170.862 492.243 179.049 528 196.226C519.676 212.284 511.769 228.534 504.276 245C485.926 236.2 469.669 231.059 449.595 227.756C445.987 227.163 443.453 223.767 443.96 220.197" fill="#F0F0F0"/>
<path fill-rule="evenodd" clip-rule="evenodd" d="M448.569 218.079C447.531 218.819 446.863 219.886 446.694 221.082C446.361 223.417 448.027 225.633 450.404 226.025C469.89 229.237 485.976 234.2 503.724 242.517C510.594 227.495 517.899 212.456 525.465 197.756C490.159 181.038 460.505 173.523 426.763 172.693C425.421 172.746 424.184 173.128 423.276 173.77C422 174.678 421.499 176.009 421.742 177.836C422.122 180.721 424.792 181.706 427.16 181.665C427.18 181.661 427.201 181.663 427.221 181.663C436.766 181.738 443.118 182.248 455.513 185.074C456.739 185.354 457.526 186.56 457.291 187.801C457.056 189.039 455.883 189.872 454.636 189.685C453.062 189.439 451.291 189.855 450.014 190.763C449.327 191.253 448.454 192.116 448.215 193.452C447.791 195.83 449.882 197.843 452.058 198.346C453.249 198.622 454.028 199.766 453.851 200.975C453.67 202.189 452.593 203.057 451.373 202.972C450.111 202.886 448.801 203.25 447.781 203.978C447.022 204.518 446.105 205.484 446.032 207.052C445.939 209.065 446.933 211.644 452.193 212.517C453.42 212.721 454.275 213.85 454.139 215.089C454.001 216.329 452.922 217.246 451.679 217.176C450.581 217.115 449.476 217.431 448.569 218.079M506.221 247.567C506.051 247.689 505.866 247.788 505.665 247.859C505.075 248.075 504.422 248.041 503.853 247.77C485.665 239.04 469.454 233.92 449.647 230.655C444.772 229.855 441.367 225.262 442.056 220.419C442.373 218.205 443.481 216.22 445.202 214.76C442.582 212.894 441.202 210.155 441.355 206.835C441.478 204.14 442.797 201.767 445.072 200.149C445.266 200.012 445.464 199.88 445.669 199.756C443.968 197.802 443.141 195.231 443.606 192.625C443.92 190.856 444.796 189.232 446.114 187.934C439.096 186.692 433.984 186.408 427.211 186.356C421.8 186.435 417.737 183.266 417.099 178.457C416.627 174.893 417.857 171.872 420.567 169.945C422.23 168.763 424.401 168.072 426.679 168C426.722 168 426.764 168 426.807 168.001C461.977 168.853 492.74 176.8 529.67 194.568C530.242 194.84 530.681 195.337 530.879 195.936C531.08 196.539 531.029 197.197 530.737 197.759C522.444 213.778 514.457 230.221 506.999 246.626C506.823 247.008 506.554 247.332 506.221 247.567" fill="#D6D6D6"/>
<path fill-rule="evenodd" clip-rule="evenodd" d="M539.441 279.942C539.441 279.942 575.86 251.616 588 242.174C558.843 203.806 516.563 188 516.563 188L493 245.013C493 245.013 523.47 258.197 539.441 279.942C539.537 280.073 539.441 279.942 539.441 279.942" fill="#009FE7"/>
<path opacity="0.3" fill-rule="evenodd" clip-rule="evenodd" d="M567.372 231.491C567.811 231.211 568.069 230.692 567.984 230.147C567.866 229.409 567.158 228.899 566.404 229.017C558.849 230.16 550.325 233.813 541.079 239.879C534.23 244.371 529.64 248.473 529.45 248.645C528.886 249.149 528.847 250.009 529.364 250.563C529.883 251.112 530.758 251.15 531.32 250.644C531.503 250.479 549.725 234.282 566.827 231.695C567.025 231.665 567.21 231.594 567.372 231.491" fill="white"/>
<path opacity="0.3" fill-rule="evenodd" clip-rule="evenodd" d="M527.129 247.77C527.342 247.628 527.52 247.427 527.632 247.169C527.722 246.965 536.892 226.452 552.299 217.626C552.959 217.25 553.196 216.392 552.824 215.716C552.45 215.039 551.612 214.802 550.951 215.179C534.732 224.471 525.504 245.148 525.12 246.024C524.811 246.729 525.119 247.56 525.812 247.879C526.256 248.079 526.752 248.023 527.129 247.77" fill="white"/>
<path fill-rule="evenodd" clip-rule="evenodd" d="M541.266 282.386C541.247 282.402 541.226 282.415 541.206 282.432C539.93 283.374 538.142 283.117 537.18 281.863C537.164 281.843 537.15 281.824 537.134 281.804L537.09 281.746C521.765 260.886 492.062 247.851 491.761 247.722C490.299 247.088 489.61 245.387 490.225 243.908L513.83 186.806C514.432 185.35 516.066 184.637 517.535 185.184C517.978 185.35 528.553 189.343 542.87 198.149C556.074 206.274 575.04 220.199 590.4 240.409C591.374 241.689 591.138 243.52 589.869 244.507L589.857 244.512C588.58 245.497 586.752 245.252 585.775 243.967C570.993 224.524 552.702 211.081 539.959 203.226C530.163 197.189 522.051 193.436 518.1 191.742L496.684 243.545C504.564 247.312 528.085 259.629 541.784 278.269C541.784 278.269 541.786 278.277 541.789 278.28L541.829 278.334C542.767 279.618 542.511 281.419 541.266 282.386" fill="#009FE7"/>
<path opacity="0.3" fill-rule="evenodd" clip-rule="evenodd" d="M560.43 253.697C559.8 254.178 558.893 254.077 558.388 253.463C540.533 231.745 516.117 220.884 515.873 220.779C515.13 220.453 514.796 219.596 515.129 218.864C515.456 218.129 516.325 217.799 517.064 218.127C517.318 218.236 542.375 229.384 560.673 251.633C561.183 252.256 561.086 253.171 560.455 253.676C560.448 253.681 560.436 253.69 560.43 253.697" fill="white"/>
<circle cx="293.5" cy="80.5" r="51.5" fill="#10202F" stroke="white" stroke-width="5.5"/>
<path d="M315.25 64.4483C306.648 63.5958 297.993 63.1566 289.365 63.1566C284.25 63.1566 279.135 63.415 274.02 63.9316L268.75 64.4483" stroke="white" stroke-width="5" stroke-linecap="round" stroke-linejoin="round"/>
<path d="M282.959 61.8392L283.527 58.455C283.941 56.0009 284.251 54.1667 288.616 54.1667H295.385C299.751 54.1667 300.086 56.1042 300.474 58.4809L301.042 61.8392" stroke="white" stroke-width="5" stroke-linecap="round" stroke-linejoin="round"/>
<path d="M309.696 72.6114L308.017 98.6256C307.733 102.681 307.501 105.833 300.293 105.833H283.708C276.501 105.833 276.268 102.681 275.984 98.6256L274.305 72.6114" stroke="white" stroke-width="5" stroke-linecap="round" stroke-linejoin="round"/>
</svg>
